HIERARCHY
ROOT Hips
{
	OFFSET -0.001795 -0.223333 0.028219
	CHANNELS 6 Xposition Yposition Zposition Zrotation Yrotation Xrotation 
	JOINT LeftUpLeg
	{
		OFFSET 0.069520 -0.091406 -0.006815
		CHANNELS 3 Zrotation Yrotation Xrotation
		JOINT LeftLeg
		{
			OFFSET 0.034277 -0.375199 -0.004496
			CHANNELS 3 Zrotation Yrotation Xrotation
			JOINT LeftFoot
			{
				OFFSET -0.013596 -0.397961 -0.043693
				CHANNELS 3 Zrotation Yrotation Xrotation
				JOINT LeftToe
				{
					OFFSET 0.026358 -0.055791 0.119288
					CHANNELS 3 Zrotation Yrotation Xrotation
					End Site
					{
						OFFSET 0.000000 0.000000 0.000000
					}
				}
			}
		}
	}
	JOINT RightUpLeg
	{
		OFFSET -0.067670 -0.090522 -0.004320
		CHANNELS 3 Zrotation Yrotation Xrotation
		JOINT RightLeg
		{
			OFFSET -0.038290 -0.382569 -0.008850
			CHANNELS 3 Zrotation Yrotation Xrotation
			JOINT RightFoot
			{
				OFFSET 0.015774 -0.398415 -0.042312
				CHANNELS 3 Zrotation Yrotation Xrotation
				JOINT RightToe
				{
					OFFSET -0.025372 -0.048144 0.123348
					CHANNELS 3 Zrotation Yrotation Xrotation
					End Site
					{
						OFFSET 0.000000 0.000000 0.000000
					}
				}
			}
		}
	}
	JOINT Spine
	{
		OFFSET -0.002533 0.108963 -0.026696
		CHANNELS 3 Zrotation Yrotation Xrotation
		JOINT Spine1
		{
			OFFSET 0.005487 0.135180 0.001092
			CHANNELS 3 Zrotation Yrotation Xrotation
			JOINT Spine2
			{
				OFFSET 0.001457 0.052922 0.025425
				CHANNELS 3 Zrotation Yrotation Xrotation
				JOINT Neck
				{
					OFFSET -0.002778 0.213870 -0.042857
					CHANNELS 3 Zrotation Yrotation Xrotation
					JOINT Head
					{
						OFFSET 0.005152 0.064970 0.051349
						CHANNELS 3 Zrotation Yrotation Xrotation
						End Site
						{
							OFFSET 0.000000 0.000000 0.000000
						}
					}
				}
				JOINT LeftShoulder
				{
					OFFSET 0.078845 0.121749 -0.034090
					CHANNELS 3 Zrotation Yrotation Xrotation
					JOINT LeftArm
					{
						OFFSET 0.090977 0.030469 -0.008868
						CHANNELS 3 Zrotation Yrotation Xrotation
						JOINT LeftForeArm
						{
							OFFSET 0.259612 -0.012772 -0.027456
							CHANNELS 3 Zrotation Yrotation Xrotation
							JOINT LeftHand
							{
								OFFSET 0.249234 0.008986 -0.001171
								CHANNELS 3 Zrotation Yrotation Xrotation
								End Site
								{
									OFFSET 0.000000 0.000000 0.000000
								}
							}
						}
					}
				}
				JOINT RightShoulder
				{
					OFFSET -0.081759 0.118833 -0.038615
					CHANNELS 3 Zrotation Yrotation Xrotation
					JOINT RightArm
					{
						OFFSET -0.096012 0.032551 -0.009143
						CHANNELS 3 Zrotation Yrotation Xrotation
						JOINT RightForeArm
						{
							OFFSET -0.253742 -0.013329 -0.021401
							CHANNELS 3 Zrotation Yrotation Xrotation
							JOINT RightHand
							{
								OFFSET -0.255298 0.007772 -0.005559
								CHANNELS 3 Zrotation Yrotation Xrotation
								End Site
								{
									OFFSET 0.000000 0.000000 0.000000
								}
							}
						}
					}
				}
			}
		}
	}
}
MOTION
Frames: 13
Frame Time: 0.050000
0.000000 0.917541 0.000000 -1.214361 33.711887 -1.451800 -1.732070 0.377096 10.448327 -0.752353 -1.293671 15.717526 4.989778 5.582670 -4.270424 0.000000 0.000000 0.000000 0.940653 0.104963 -31.366871 1.431260 -0.912943 14.565110 -8.282883 -14.379249 21.351034 0.000000 0.000000 0.000000 5.912588 -0.808202 6.622309 -6.153227 2.688840 -20.893433 -4.619697 -6.783734 24.968863 9.787226 -2.002721 -24.862133 0.000000 0.000000 0.000000 -8.040745 -8.423228 1.230436 -47.995501 -25.666427 2.046174 40.948432 -54.209051 -22.306523 0.000000 0.000000 0.000000 17.451911 -7.785609 -2.004784 64.420082 2.976985 -6.026967 -6.511421 30.997130 1.314100 0.000000 0.000000 0.000000 
0.023847 0.917117 0.051737 -1.064682 30.273201 -1.734624 -0.399942 0.286323 9.731409 -4.658261 -1.527941 24.384110 0.422085 3.471100 4.160213 0.000000 0.000000 0.000000 1.289548 0.650109 -30.597999 4.465438 -2.216929 18.569755 -10.889266 -19.345448 20.465079 0.000000 0.000000 0.000000 8.006976 -0.792286 5.159310 -7.901332 2.945738 -21.869661 -4.365003 -6.241399 25.511351 8.405801 -1.651367 -23.644950 0.000000 0.000000 0.000000 -7.063112 -9.006602 1.879469 -48.291165 -29.368029 3.320393 48.513916 -52.685424 -25.190040 0.000000 0.000000 0.000000 16.977751 -9.758925 -3.531570 65.800682 0.422952 -7.436916 -4.091598 28.668425 1.593815 0.000000 0.000000 0.000000 
0.045731 0.919434 0.099457 -1.113122 24.503681 -1.834671 1.777404 0.093926 5.612185 -11.952707 -0.062277 35.054147 2.810334 10.494100 11.783516 0.000000 0.000000 0.000000 3.661922 1.941555 -29.927970 4.093869 -2.257963 23.123899 -10.543938 -20.595619 16.019838 0.000000 0.000000 0.000000 9.366079 -0.794154 4.595237 -8.456294 2.776381 -24.494392 -3.642558 -3.915512 27.876419 6.315925 -0.323456 -25.226527 0.000000 0.000000 0.000000 -5.059285 -9.699452 2.563342 -44.289690 -32.239421 3.646757 46.485303 -50.548718 -22.581803 0.000000 0.000000 0.000000 14.067207 -9.259343 -3.461458 65.597928 -1.488519 -8.481611 0.304298 28.242487 2.410018 0.000000 0.000000 0.000000 
0.064245 0.925962 0.140768 -1.237889 20.494045 -3.214966 3.952801 -0.139736 1.831341 -18.143987 2.561073 44.447183 6.772193 16.669757 16.155039 0.000000 0.000000 0.000000 5.693712 2.720389 -26.486264 3.734498 -1.904953 23.693474 -10.205105 -20.694521 15.696784 0.000000 0.000000 0.000000 10.129798 -0.824579 4.871875 -8.157819 2.690930 -24.770175 -3.458229 -3.337599 27.654817 6.532301 -0.881500 -24.253761 0.000000 0.000000 0.000000 -2.671214 -10.349745 3.146560 -42.526502 -37.758109 5.303310 46.435227 -45.268475 -19.496609 0.000000 0.000000 0.000000 13.799451 -8.747046 -3.459849 65.190097 -2.103865 -9.012306 2.299479 29.165684 2.879505 0.000000 0.000000 0.000000 
0.079549 0.935481 0.176380 -0.845967 16.390083 -4.109267 4.789713 -0.262911 -1.847093 -20.481608 4.799309 49.158355 9.847148 20.568815 15.963910 0.000000 0.000000 0.000000 5.946883 2.719489 -22.084285 4.096542 -1.609082 22.290539 -9.522798 -20.236407 14.927747 0.000000 0.000000 0.000000 9.579728 -0.973614 6.739203 -6.831564 2.353350 -25.752461 -3.617155 -3.079022 27.451303 7.154340 -1.815327 -23.311422 0.000000 0.000000 0.000000 -0.004764 -12.823051 4.166894 -35.783026 -42.592048 5.419395 46.999296 -35.630722 -14.966630 0.000000 0.000000 0.000000 14.756298 -8.067250 -3.478280 63.396608 -2.720498 -9.599769 2.202106 29.744322 2.765420 0.000000 0.000000 0.000000 
0.092471 0.946508 0.206840 0.236762 11.549283 -4.097667 4.497954 -0.411229 -5.709814 -18.859599 5.553541 50.373436 9.148866 19.506222 14.434747 0.000000 0.000000 0.000000 5.149147 2.427002 -18.830624 3.633398 -0.986884 20.680061 -6.611720 -15.903578 12.876149 0.000000 0.000000 0.000000 8.921271 -0.914924 7.134344 -6.097175 2.166942 -25.920681 -3.478602 -3.459014 26.812642 5.249097 -1.426203 -21.510945 0.000000 0.000000 0.000000 2.052286 -13.019821 4.235918 -28.392301 -46.367849 4.699320 44.548994 -26.870324 -10.039488 0.000000 0.000000 0.000000 15.091382 -6.873062 -3.494207 62.064606 -2.826913 -9.771926 0.774926 30.101370 2.163016 0.000000 0.000000 0.000000 
0.103010 0.955471 0.233055 0.976742 6.608146 -3.991030 4.086291 -0.581433 -8.908974 -15.096922 4.968865 49.081608 8.843904 18.818485 11.647378 0.000000 0.000000 0.000000 5.056937 2.182660 -16.069328 2.627868 -0.316382 18.964653 -4.889762 -13.346000 12.290816 0.000000 0.000000 0.000000 8.252292 -0.792578 6.921683 -5.397405 1.966374 -26.225768 -3.097049 -3.022367 27.266650 4.551303 -1.385966 -21.887311 0.000000 0.000000 0.000000 4.453770 -14.164508 4.381355 -18.952632 -48.756262 2.422551 41.482713 -18.149218 -5.961580 0.000000 0.000000 0.000000 14.694253 -6.351044 -3.662607 62.883666 -2.530880 -9.994022 0.495349 30.486033 1.948075 0.000000 0.000000 0.000000 
0.111371 0.962322 0.254433 1.988552 1.283346 -3.804266 3.125294 -0.688769 -10.280382 -10.179090 3.511172 44.280505 8.483606 17.947207 8.935454 0.000000 0.000000 0.000000 4.887896 1.963982 -14.242437 1.033806 0.396029 17.829283 -2.404321 -9.406033 12.137779 0.000000 0.000000 0.000000 7.247891 -0.682916 6.828387 -4.757445 1.760327 -26.330703 -2.659993 -2.748621 27.455375 3.197006 -1.092874 -21.234587 0.000000 0.000000 0.000000 5.711491 -14.305205 4.188752 -9.690851 -49.506652 -0.176713 37.473572 -10.951896 -2.942856 0.000000 0.000000 0.000000 14.978487 -4.291228 -3.261583 62.880261 -1.963303 -9.922499 -0.950768 30.193169 1.289133 0.000000 0.000000 0.000000 
0.118674 0.967040 0.271555 2.548743 -3.816000 -3.218400 2.678249 -0.741719 -11.313330 -5.578412 1.964905 37.883670 7.054904 15.220787 6.730037 0.000000 0.000000 0.000000 4.693809 1.817724 -13.280681 -0.476770 0.947629 16.833211 -0.089017 -5.572129 11.576777 0.000000 0.000000 0.000000 6.592789 -0.667068 7.242076 -4.010349 1.519238 -27.858987 -2.181493 -1.424014 28.039094 1.772835 -0.438521 -21.795175 0.000000 0.000000 0.000000 7.446093 -15.024827 4.058241 -3.537876 -49.445266 -1.934673 36.064583 -5.943984 -1.307741 0.000000 0.000000 0.000000 15.107063 -3.655211 -3.381832 62.584518 -1.177399 -9.607077 -2.621555 29.501209 0.678016 0.000000 0.000000 0.000000 
0.125457 0.970139 0.284769 2.961737 -8.769589 -2.610679 2.363711 -0.706197 -11.178042 -2.241976 0.835089 29.405889 5.226210 11.714156 6.564975 0.000000 0.000000 0.000000 4.642599 1.866576 -13.599925 -2.180372 1.570142 17.245977 2.843542 -0.803236 11.960596 0.000000 0.000000 0.000000 5.947536 -0.649780 7.677341 -3.760401 1.428356 -28.734457 -1.228438 -1.134089 28.281278 0.438436 -0.009366 -22.609325 0.000000 0.000000 0.000000 8.499404 -14.886000 3.679961 0.399268 -48.827348 -2.729519 35.177431 -1.794259 0.042071 0.000000 0.000000 0.000000 14.478340 -1.733052 -2.954365 62.908041 -0.948861 -9.686790 -4.166463 29.426803 0.037933 0.000000 0.000000 0.000000 
0.132353 0.971002 0.294859 3.227075 -13.358913 -1.945930 1.433130 -0.710596 -10.328712 -0.295032 0.194260 21.132564 3.194800 7.681502 6.493424 0.000000 0.000000 0.000000 4.366783 1.854336 -13.690212 -3.542165 2.081072 17.552133 4.826839 3.147534 10.889884 0.000000 0.000000 0.000000 5.109859 -0.578718 7.545761 -2.190713 1.089467 -29.217466 -1.380799 0.257457 28.924937 0.217258 -0.043527 -24.517900 0.000000 0.000000 0.000000 10.011450 -14.199362 3.096694 2.601251 -48.672702 -3.111852 34.781619 0.870965 0.874454 0.000000 0.000000 0.000000 15.092694 -1.315093 -3.244327 62.258326 0.388211 -8.939879 -5.513011 27.757471 -0.407998 0.000000 0.000000 0.000000 
0.139410 0.970599 0.302884 3.312371 -16.499685 -1.923343 -0.147700 -0.791593 -9.353632 2.118460 -0.500243 16.480869 -1.203084 -0.851433 6.049264 0.000000 0.000000 0.000000 3.864063 1.808037 -13.661666 -4.121595 2.221400 16.925853 6.404212 6.326086 10.464687 0.000000 0.000000 0.000000 4.944239 -0.579205 7.979094 -2.773837 1.170844 -28.905355 -1.033146 -0.284787 28.557364 0.888899 -0.866777 -24.383386 0.000000 0.000000 0.000000 9.626659 -15.230826 3.305001 5.470024 -47.084994 -3.493096 34.872429 3.011772 1.565463 0.000000 0.000000 0.000000 15.230075 -0.361268 -3.410404 63.121597 0.617738 -8.947863 -7.441360 27.100805 -1.043010 0.000000 0.000000 0.000000 
0.146542 0.969591 0.309260 2.769726 -19.377195 -1.627338 -1.170378 -0.792990 -8.227604 3.489229 -0.784487 14.927546 -4.037042 -6.297881 6.118745 0.000000 0.000000 0.000000 3.217881 1.801171 -13.917355 -3.740643 2.188358 16.854866 7.346091 8.413789 9.987003 0.000000 0.000000 0.000000 4.939695 -0.587969 8.313870 -2.799411 1.159230 -29.246264 -0.418856 -0.048780 28.821859 1.364803 -1.438213 -23.816070 0.000000 0.000000 0.000000 9.072423 -15.098956 3.310697 6.605932 -47.128218 -3.639706 36.655763 4.622881 2.232985 0.000000 0.000000 0.000000 16.843841 -0.021421 -4.052835 61.809121 0.657228 -8.556547 -8.552255 25.690270 -1.350054 0.000000 0.000000 0.000000 
